{"title":"Pichaikkaran 2016 TS Tamil Movies xviD-TvMovize.mp4","uid":13929453,"size":581844597,"categoryP":"video","categoryS":"movies","magnet":"?xt=urn:btih:cf00d9237487a9ff5cd554f169f3ff92df3a4db9&amp;dn=Pichaikkaran+2016+TS+Tamil+Movies+xviD-TvMovize.mp4&amp;tr=udp%3A%2F%2Ftracker.leechers-paradise.org%3A6969&amp;tr=udp%3A%2F%2Fzer0day.ch%3A1337&amp;tr=udp%3A%2F%2Fopen.demonii.com%3A1337&amp;tr=udp%3A%2F%2Ftracker.coppersurfer.tk%3A6969&amp;tr=udp%3A%2F%2Fexodus.desync.com%3A6969","seeders":6,"leechers":0,"uploader":"TvMovize","files":1,"time":1458407804,"description":"Pichaikkaran 2016 TS Tamil Movies xviD-TvMovize.mp4\r\n\r\n++ ScreenShots ++\r\n \nhttp://www.image2be.com/movie/Pichaikkaran/1.html  \nhttp://www.image2be.com/movie/Pichaikkaran/2.html  \nhttp://www.image2be.com/movie/Pichaikkaran/3.html  \nhttp://www.image2be.com/movie/Pichaikkaran/4.html  \nhttp://www.image2be.com/movie/Pichaikkaran/5.html \r\n\r\n++ Info ++\r\n\r\n\r\nFormat : MPEG-4 \r\nFormat profile : Base Media \r\nCodec ID : isom (isom/iso2/avc1/mp41) \r\nFile size : 555 MiB \r\nDuration : 2h 4mn \r\nOverall bit rate : 625 Kbps \r\nWriting application : Lavf57.20.100 \r\n\r\nVideo \r\nID : 1 \r\nFormat : AVC \r\nFormat/Info : Advanced Video Codec \r\nFormat profile :    \r\nFormat settings, CABAC : Yes \r\nFormat settings, ReFrames : 4 frames \r\nCodec ID : avc1 \r\nCodec ID/Info : Advanced Video Coding \r\nDuration : 2h 4mn \r\nBit rate : 491 Kbps \r\nWidth : 672 pixels \r\nHeight : 280 pixels \r\nDisplay aspect ratio : 2.40:1 \r\nFrame rate mode : Constant \r\nFrame rate : 25.000 fps \r\nColor space : YUV \r\nChroma subsampling : 4:2:0 \r\nBit depth : 8 bits \r\nScan type : Progressive \r\nBits/(Pixel*Frame) : 0.104 \r\nStream size : 436 MiB (79%) \r\nWriting library : x264 core 142 r2479 dd79a61 \r\nEncoding settings : cabac=1 / ref=1 / deblock=1:0:0 / analyse=0x1:0x111 / me=hex / subme=2 / psy=1 / psy_rd=1.00:0.00 / mixed_ref=0 / me_range=16 / chroma_me=1 / trellis=0 / 8x8dct=0 / cqm=0 / deadzone=21,11 / fast_pskip=1 / chroma_qp_offset=0 / threads=6 / lookahead_threads=2 / sliced_threads=0 / nr=0 / decimate=1 / interlaced=0 / bluray_compat=0 / constrained_intra=0 / bframes=3 / b_pyramid=2 / b_adapt=1 / b_bias=0 / direct=1 / weightb=1 / open_gop=0 / weightp=1 / keyint=250 / keyint_min=25 / scenecut=40 / intra_refresh=0 / rc_lookahead=10 / rc=crf / mbtree=1 / crf=22.0 / qcomp=0.60 / qpmin=0 / qpmax=69 / qpstep=4 / vbv_maxrate=20000 / vbv_bufsize=25000 / crf_max=0.0 / nal_hrd=none / filler=0 / ip_ratio=1.40 / aq=1:1.00 \r\nColor range : Limited \r\nColor primaries : BT.601 PAL \r\nTransfer characteristics : BT.709 \r\nMatrix coefficients : BT.601 \r\n\r\nAudio \r\nID : 2 \r\nFormat : AAC \r\nFormat/Info : Advanced Audio Codec \r\nFormat profile : LC \r\nCodec ID : 40 \r\nDuration : 2h 4mn \r\nBit rate mode : Constant \r\nBit rate : 128 Kbps \r\nChannel(s) : 2 channels \r\nChannel positions : Front: L R \r\nSampling rate : 32.0 KHz \r\nFrame rate : 31.250 fps (1024 spf) \r\nCompression mode : Lossy \r\nStream size : 114 MiB (21%) \r\nTitle : Stereo \r\nDefault : Yes \r\nAlternate group : 1","torrent":{"xt":"urn:btih:cf00d9237487a9ff5cd554f169f3ff92df3a4db9","amp;dn":"Pichaikkaran+2016+TS+Tamil+Movies+xviD-TvMovize.mp4","amp;tr":["udp%3A%2F%2Ftracker.leechers-paradise.org%3A6969","udp%3A%2F%2Fzer0day.ch%3A1337","udp%3A%2F%2Fopen.demonii.com%3A1337","udp%3A%2F%2Ftracker.coppersurfer.tk%3A6969","udp%3A%2F%2Fexodus.desync.com%3A6969"],"infoHash":"cf00d9237487a9ff5cd554f169f3ff92df3a4db9","infoHashBuffer":{"type":"Buffer","data":[207,0,217,35,116,135,169,255,92,213,84,241,105,243,255,146,223,58,77,185]},"announce":[],"urlList":[]}}